<mxfile host="Electron" modified="2024-03-18T04:39:08.211Z" agent="Mozilla/5.0 (Macintosh; Intel Mac OS X 10_15_7) AppleWebKit/537.36 (KHTML, like Gecko) draw.io/24.0.4 Chrome/120.0.6099.109 Electron/28.1.0 Safari/537.36" etag="BXZTC_p6nipD1LV50o0x" version="24.0.4" type="device">
  <diagram id="prtHgNgQTEPvFCAcTncT" name="Page-1">
    <mxGraphModel dx="954" dy="624" grid="1" gridSize="10" guides="1" tooltips="1" connect="1" arrows="1" fold="1" page="1" pageScale="1" pageWidth="827" pageHeight="1169" math="0" shadow="0">
      <root>
        <mxCell id="0" />
        <mxCell id="1" parent="0" />
        <mxCell id="dNxyNK7c78bLwvsdeMH5-11" value="Host user usecases (peer A)" style="swimlane;html=1;startSize=20;horizontal=1;containerType=tree;glass=0;" parent="1" vertex="1">
          <mxGeometry x="40" y="80" width="660" height="530" as="geometry" />
        </mxCell>
        <mxCell id="OiZnXtct43Ue3zYjEDN8-11" value="" style="rounded=0;whiteSpace=wrap;html=1;dashed=1;" vertex="1" parent="dNxyNK7c78bLwvsdeMH5-11">
          <mxGeometry x="150" y="145" width="160" height="365" as="geometry" />
        </mxCell>
        <mxCell id="OiZnXtct43Ue3zYjEDN8-4" style="edgeStyle=orthogonalEdgeStyle;rounded=0;orthogonalLoop=1;jettySize=auto;html=1;entryX=0.5;entryY=0;entryDx=0;entryDy=0;" edge="1" parent="dNxyNK7c78bLwvsdeMH5-11" source="OiZnXtct43Ue3zYjEDN8-1" target="OiZnXtct43Ue3zYjEDN8-2">
          <mxGeometry relative="1" as="geometry" />
        </mxCell>
        <mxCell id="OiZnXtct43Ue3zYjEDN8-1" value="User click on &quot;Select shared devices&quot;" style="rounded=0;whiteSpace=wrap;html=1;" vertex="1" parent="dNxyNK7c78bLwvsdeMH5-11">
          <mxGeometry x="10" y="30" width="120" height="60" as="geometry" />
        </mxCell>
        <mxCell id="OiZnXtct43Ue3zYjEDN8-7" style="edgeStyle=orthogonalEdgeStyle;rounded=0;orthogonalLoop=1;jettySize=auto;html=1;" edge="1" parent="dNxyNK7c78bLwvsdeMH5-11" source="OiZnXtct43Ue3zYjEDN8-2" target="OiZnXtct43Ue3zYjEDN8-3">
          <mxGeometry relative="1" as="geometry" />
        </mxCell>
        <mxCell id="OiZnXtct43Ue3zYjEDN8-2" value="send signal &quot;getSharedList&quot; to signaling server" style="rounded=0;whiteSpace=wrap;html=1;" vertex="1" parent="dNxyNK7c78bLwvsdeMH5-11">
          <mxGeometry x="10" y="110" width="120" height="60" as="geometry" />
        </mxCell>
        <mxCell id="OiZnXtct43Ue3zYjEDN8-3" value="display box list on browser" style="rounded=0;whiteSpace=wrap;html=1;" vertex="1" parent="dNxyNK7c78bLwvsdeMH5-11">
          <mxGeometry x="10" y="190" width="120" height="60" as="geometry" />
        </mxCell>
        <mxCell id="OiZnXtct43Ue3zYjEDN8-23" style="edgeStyle=orthogonalEdgeStyle;rounded=0;orthogonalLoop=1;jettySize=auto;html=1;entryX=0.5;entryY=0;entryDx=0;entryDy=0;" edge="1" parent="dNxyNK7c78bLwvsdeMH5-11" source="OiZnXtct43Ue3zYjEDN8-8" target="OiZnXtct43Ue3zYjEDN8-9">
          <mxGeometry relative="1" as="geometry" />
        </mxCell>
        <mxCell id="OiZnXtct43Ue3zYjEDN8-8" value="User click on icon share" style="rounded=0;whiteSpace=wrap;html=1;" vertex="1" parent="dNxyNK7c78bLwvsdeMH5-11">
          <mxGeometry x="170" y="30" width="120" height="60" as="geometry" />
        </mxCell>
        <mxCell id="OiZnXtct43Ue3zYjEDN8-48" style="edgeStyle=orthogonalEdgeStyle;rounded=0;orthogonalLoop=1;jettySize=auto;html=1;entryX=0;entryY=0.5;entryDx=0;entryDy=0;" edge="1" parent="dNxyNK7c78bLwvsdeMH5-11" source="OiZnXtct43Ue3zYjEDN8-9" target="OiZnXtct43Ue3zYjEDN8-20">
          <mxGeometry relative="1" as="geometry" />
        </mxCell>
        <mxCell id="OiZnXtct43Ue3zYjEDN8-9" value="Run function start with srcType (share screen or current video)" style="rounded=0;whiteSpace=wrap;html=1;" vertex="1" parent="dNxyNK7c78bLwvsdeMH5-11">
          <mxGeometry x="170" y="110" width="120" height="60" as="geometry" />
        </mxCell>
        <mxCell id="OiZnXtct43Ue3zYjEDN8-12" value="fetchUserMedia()" style="rounded=0;whiteSpace=wrap;html=1;" vertex="1" parent="dNxyNK7c78bLwvsdeMH5-11">
          <mxGeometry x="170" y="190" width="120" height="30" as="geometry" />
        </mxCell>
        <mxCell id="OiZnXtct43Ue3zYjEDN8-13" value="createPeerConnection&lt;div&gt;()&lt;/div&gt;" style="rounded=0;whiteSpace=wrap;html=1;" vertex="1" parent="dNxyNK7c78bLwvsdeMH5-11">
          <mxGeometry x="170" y="240" width="120" height="30" as="geometry" />
        </mxCell>
        <mxCell id="OiZnXtct43Ue3zYjEDN8-14" value="add media to p2p" style="rounded=0;whiteSpace=wrap;html=1;" vertex="1" parent="dNxyNK7c78bLwvsdeMH5-11">
          <mxGeometry x="170" y="290" width="120" height="30" as="geometry" />
        </mxCell>
        <mxCell id="OiZnXtct43Ue3zYjEDN8-15" value="createoffer(),&amp;nbsp;&lt;br&gt;setLocalDescription()" style="rounded=0;whiteSpace=wrap;html=1;" vertex="1" parent="dNxyNK7c78bLwvsdeMH5-11">
          <mxGeometry x="170" y="390" width="120" height="30" as="geometry" />
        </mxCell>
        <mxCell id="OiZnXtct43Ue3zYjEDN8-16" value="Send offer to signaling server. (&quot;newOffer&quot;)" style="rounded=0;whiteSpace=wrap;html=1;" vertex="1" parent="dNxyNK7c78bLwvsdeMH5-11">
          <mxGeometry x="170" y="440" width="120" height="50" as="geometry" />
        </mxCell>
        <mxCell id="OiZnXtct43Ue3zYjEDN8-19" style="edgeStyle=orthogonalEdgeStyle;rounded=0;orthogonalLoop=1;jettySize=auto;html=1;exitX=0.5;exitY=1;exitDx=0;exitDy=0;" edge="1" parent="dNxyNK7c78bLwvsdeMH5-11" source="OiZnXtct43Ue3zYjEDN8-11" target="OiZnXtct43Ue3zYjEDN8-11">
          <mxGeometry relative="1" as="geometry" />
        </mxCell>
        <mxCell id="OiZnXtct43Ue3zYjEDN8-24" style="edgeStyle=orthogonalEdgeStyle;rounded=0;orthogonalLoop=1;jettySize=auto;html=1;" edge="1" parent="dNxyNK7c78bLwvsdeMH5-11" source="OiZnXtct43Ue3zYjEDN8-20" target="OiZnXtct43Ue3zYjEDN8-22">
          <mxGeometry relative="1" as="geometry" />
        </mxCell>
        <mxCell id="OiZnXtct43Ue3zYjEDN8-20" value="Listen to signal &quot;answerRespone&quot;" style="rounded=0;whiteSpace=wrap;html=1;" vertex="1" parent="dNxyNK7c78bLwvsdeMH5-11">
          <mxGeometry x="340" y="30" width="120" height="60" as="geometry" />
        </mxCell>
        <mxCell id="OiZnXtct43Ue3zYjEDN8-22" value="addAnswer()&lt;br&gt;(run API funtion:&lt;br&gt;setRemoteDesciption&lt;div&gt;(answerOffer)&lt;span style=&quot;background-color: initial;&quot;&gt;)&lt;/span&gt;&lt;/div&gt;" style="rounded=0;whiteSpace=wrap;html=1;" vertex="1" parent="dNxyNK7c78bLwvsdeMH5-11">
          <mxGeometry x="340" y="110" width="120" height="60" as="geometry" />
        </mxCell>
        <mxCell id="OiZnXtct43Ue3zYjEDN8-47" style="edgeStyle=orthogonalEdgeStyle;rounded=0;orthogonalLoop=1;jettySize=auto;html=1;entryX=0.5;entryY=0;entryDx=0;entryDy=0;" edge="1" parent="dNxyNK7c78bLwvsdeMH5-11" source="OiZnXtct43Ue3zYjEDN8-44" target="OiZnXtct43Ue3zYjEDN8-45">
          <mxGeometry relative="1" as="geometry" />
        </mxCell>
        <mxCell id="OiZnXtct43Ue3zYjEDN8-44" value="Listen to signal &quot;&lt;span style=&quot;color: rgb(8, 28, 54); font-family: SegoeuiPc, &amp;quot;Segoe UI&amp;quot;, &amp;quot;San Francisco&amp;quot;, &amp;quot;Helvetica Neue&amp;quot;, Helvetica, &amp;quot;Lucida Grande&amp;quot;, Roboto, Ubuntu, Tahoma, &amp;quot;Microsoft Sans Serif&amp;quot;, Arial, sans-serif; letter-spacing: 0.2px; text-align: start; white-space-collapse: preserve; background-color: rgb(255, 255, 255);&quot;&gt;receivedIce&lt;br/&gt;CandidateFrom&lt;br/&gt;Server&lt;/span&gt;&quot;" style="rounded=0;whiteSpace=wrap;html=1;" vertex="1" parent="dNxyNK7c78bLwvsdeMH5-11">
          <mxGeometry x="510" y="30" width="120" height="60" as="geometry" />
        </mxCell>
        <mxCell id="OiZnXtct43Ue3zYjEDN8-45" value="&lt;span style=&quot;color: rgb(8, 28, 54); font-family: SegoeuiPc, &amp;quot;Segoe UI&amp;quot;, &amp;quot;San Francisco&amp;quot;, &amp;quot;Helvetica Neue&amp;quot;, Helvetica, &amp;quot;Lucida Grande&amp;quot;, Roboto, Ubuntu, Tahoma, &amp;quot;Microsoft Sans Serif&amp;quot;, Arial, sans-serif; letter-spacing: 0.2px; text-align: start; white-space-collapse: preserve; background-color: rgb(255, 255, 255);&quot;&gt;&lt;font style=&quot;font-size: 12px;&quot;&gt;addNewIce&lt;br&gt;Candidate()&lt;br&gt;(run API addICEcandidate())&lt;/font&gt;&lt;/span&gt;" style="rounded=0;whiteSpace=wrap;html=1;" vertex="1" parent="dNxyNK7c78bLwvsdeMH5-11">
          <mxGeometry x="510" y="110" width="120" height="80" as="geometry" />
        </mxCell>
        <mxCell id="OiZnXtct43Ue3zYjEDN8-46" style="edgeStyle=orthogonalEdgeStyle;rounded=0;orthogonalLoop=1;jettySize=auto;html=1;entryX=-0.025;entryY=0.617;entryDx=0;entryDy=0;entryPerimeter=0;" edge="1" parent="dNxyNK7c78bLwvsdeMH5-11" source="OiZnXtct43Ue3zYjEDN8-22" target="OiZnXtct43Ue3zYjEDN8-44">
          <mxGeometry relative="1" as="geometry">
            <Array as="points">
              <mxPoint x="480" y="140" />
              <mxPoint x="480" y="67" />
            </Array>
          </mxGeometry>
        </mxCell>
        <mxCell id="OiZnXtct43Ue3zYjEDN8-49" value="Display media on shared content" style="rounded=0;whiteSpace=wrap;html=1;" vertex="1" parent="dNxyNK7c78bLwvsdeMH5-11">
          <mxGeometry x="170" y="340" width="120" height="30" as="geometry" />
        </mxCell>
      </root>
    </mxGraphModel>
  </diagram>
</mxfile>
